<?xml version="1.0" encoding="utf-8"?>
<!-- Generator: Adobe Illustrator 28.1.0, SVG Export Plug-In . SVG Version: 6.00 Build 0)  -->
<svg version="1.1" xmlns="http://www.w3.org/2000/svg" xmlns:xlink="http://www.w3.org/1999/xlink" x="0px" y="0px"
	 viewBox="0 0 949.8 669.7" style="enable-background:new 0 0 949.8 669.7;" xml:space="preserve">
<style type="text/css">
	.st0{fill-rule:evenodd;clip-rule:evenodd;fill:#FCEFE3;}
	.st1{fill-rule:evenodd;clip-rule:evenodd;fill:#D9CABD;}
	.st2{fill:#EDE0D5;}
	.st3{fill:#1F1406;}
	.st4{fill:#E2B186;}
	.st5{fill:#36261B;}
	.st6{fill:#D6573E;}
	.st7{fill:#EDB07E;}
	.st8{fill:#E0D1C3;}
	.st9{fill:#D9CABD;}
	.st10{fill:#FFFFFF;}
	.st11{fill:#BFAD99;}
	.st12{fill:#1C7D5E;}
	.st13{fill:#5C3420;}
	.st14{fill:#8F462A;}
	.st15{fill:#D46D4E;}
	.st16{fill:#E69B5C;}
	.st17{fill-rule:evenodd;clip-rule:evenodd;fill:#873B24;}
	.st18{fill-rule:evenodd;clip-rule:evenodd;fill:#5C3420;}
	.st19{fill-rule:evenodd;clip-rule:evenodd;fill:#D46D4E;}
	.st20{fill-rule:evenodd;clip-rule:evenodd;fill:#E69B5C;}
	.st21{fill:#CF7021;}
	.st22{fill:#5E2E1C;}
	.st23{fill-rule:evenodd;clip-rule:evenodd;fill:#FFFFFF;}
	.st24{fill-rule:evenodd;clip-rule:evenodd;fill:#4A2A1A;}
	.st25{fill-rule:evenodd;clip-rule:evenodd;fill:#C95836;}
	.st26{fill:#C95836;}
	.st27{fill-rule:evenodd;clip-rule:evenodd;fill:#FF8000;}
	.st28{fill-rule:evenodd;clip-rule:evenodd;fill:#572A22;}
	.st29{fill-rule:evenodd;clip-rule:evenodd;fill:#633C1D;}
	.st30{fill-rule:evenodd;clip-rule:evenodd;fill:#EDE0D5;}
	.st31{fill-rule:evenodd;clip-rule:evenodd;fill:#E3633D;}
	.st32{fill-rule:evenodd;clip-rule:evenodd;fill:#C2ADA0;}
	.st33{fill-rule:evenodd;clip-rule:evenodd;fill:#A39287;}
	.st34{fill:#FF8000;}
	.st35{fill-rule:evenodd;clip-rule:evenodd;fill:#24A37B;}
	.st36{fill:#A36027;}
	.st37{fill-rule:evenodd;clip-rule:evenodd;fill:#30A682;}
</style>
<g id="background">
</g>
<g id="image">
	<g>
		<path class="st0" d="M799.8,574c0,0-100.5,116.8-218.5,64.4c-118-52.3-158.9-75.6-341.1-66.6c-186.9,9.3-293-257.5-118-440.2
			S476.4,3.1,599.8,59.6C766.4,135.8,984.4,347.6,799.8,574z"/>
	</g>
	<g>
		
			<rect x="458.7" y="190" transform="matrix(0.989 -0.1481 0.1481 0.989 -41.4056 87.409)" class="st1" width="214.9" height="263.5"/>
	</g>
	<g>
		<ellipse class="st2" cx="591.2" cy="654.5" rx="120.4" ry="13.3"/>
	</g>
	<g>
		<ellipse class="st2" cx="435.6" cy="653.8" rx="33.9" ry="9.5"/>
	</g>
	<g>
		<path class="st3" d="M778.8,479.2c-6,0-10.9-4.9-10.9-10.9c0-6,4.9-10.9,10.9-10.9c6,0,10.9,4.9,10.9,10.9
			C789.7,474.4,784.8,479.2,778.8,479.2z M778.8,459.4c-4.9,0-8.9,4-8.9,8.9c0,4.9,4,8.9,8.9,8.9s8.9-4,8.9-8.9
			C787.7,463.4,783.7,459.4,778.8,459.4z"/>
	</g>
	<g>
		<path class="st3" d="M394.5,77.5c-6,0-10.9-4.9-10.9-10.9c0-6,4.9-10.9,10.9-10.9c6,0,10.9,4.9,10.9,10.9
			C405.4,72.7,400.5,77.5,394.5,77.5z M394.5,57.7c-4.9,0-8.9,4-8.9,8.9c0,4.9,4,8.9,8.9,8.9c4.9,0,8.9-4,8.9-8.9
			C403.4,61.7,399.4,57.7,394.5,57.7z"/>
	</g>
	<g>
		<path class="st3" d="M20.9,274.8c-6,0-10.9-4.9-10.9-10.9c0-6,4.9-10.9,10.9-10.9c6,0,10.9,4.9,10.9,10.9
			C31.9,269.9,27,274.8,20.9,274.8z M20.9,255c-4.9,0-8.9,4-8.9,8.9c0,4.9,4,8.9,8.9,8.9c4.9,0,8.9-4,8.9-8.9
			C29.9,259,25.9,255,20.9,255z"/>
	</g>
	<g>
		<ellipse class="st2" cx="427.9" cy="622.7" rx="348.4" ry="24.9"/>
	</g>
	<g>
		<g>
			<path class="st4" d="M684.2,323.7c0,0,45.1-164,184.2-191.3L735.7,327.9c0,0,58.9-86.7,213.2-43.6c0,0-111.5-7.1-199,100.4
				c0,0-31.6,39.5-48.9,108.3L684.2,323.7z"/>
		</g>
		<g>
			<path class="st5" d="M705,378.2c-0.2,0-0.3,0-0.5-0.1c-0.4-0.3-0.6-0.8-0.3-1.3l32-51.2c0.3-0.4,0.8-0.6,1.3-0.3
				c0.4,0.3,0.6,0.8,0.3,1.3l-32,51.2C705.6,378.1,705.3,378.2,705,378.2z"/>
		</g>
	</g>
	<g>
		<path class="st6" d="M432.6,627.7h-22.2c-5.3,0-9.6-4.3-9.6-9.6l0-68.6c0-5.3,4.3-9.6,9.6-9.6h22.2c5.3,0,9.6,4.3,9.6,9.6l0,68.6
			C442.2,623.4,437.9,627.7,432.6,627.7z"/>
	</g>
	<g>
		<path class="st6" d="M695.2,621.8l-264.5,0l0-421.6l267.9,0c11.6,0,21,9.4,21,21l0,376.1C719.7,610.9,708.7,621.8,695.2,621.8z"/>
	</g>
	<g>
		<path class="st6" d="M156,621.8l260.5,0l0-421.6l-264,0c-11.5,0-20.9,9.3-20.9,20.9l0,376.5C131.7,610.9,142.6,621.8,156,621.8z"
			/>
	</g>
	<g>
		<path class="st7" d="M451.7,615l-43.9,0c-7.3,0-13.3-6-13.3-13.3l0-391.2c0-5.7,4.6-10.3,10.3-10.3l46.9,0L451.7,615z"/>
	</g>
	<g>
		<rect x="144.6" y="200.2" class="st8" width="278.5" height="414.8"/>
	</g>
	<g>
		<rect x="423.1" y="200.2" class="st9" width="278.5" height="414.8"/>
	</g>
	<g>
		
			<rect x="423.1" y="200.2" transform="matrix(-1 -8.023164e-07 8.023164e-07 -1 1092.5522 815.1953)" class="st10" width="246.4" height="414.8"/>
	</g>
	<g>
		<path class="st11" d="M685.2,608.8c-0.4,0-0.8-0.4-0.8-0.8V215.2c0-0.4,0.4-0.8,0.8-0.8s0.8,0.4,0.8,0.8V608
			C686,608.4,685.7,608.8,685.2,608.8z"/>
	</g>
	<g>
		<path class="st11" d="M158.6,601.1c-0.4,0-0.8-0.4-0.8-0.8V207.6c0-0.4,0.4-0.8,0.8-0.8c0.4,0,0.8,0.4,0.8,0.8v392.8
			C159.4,600.8,159.1,601.1,158.6,601.1z"/>
	</g>
	<g>
		<path class="st11" d="M415.1,614.4c-0.1,0-0.1,0-0.2,0c-154.2-35.7-218.8-20.1-219.4-20c-0.4,0.1-0.9-0.1-1-0.6
			c-0.1-0.4,0.1-0.9,0.6-1c0.6-0.2,65.5-15.9,220.2,19.9c0.4,0.1,0.7,0.5,0.6,1C415.8,614.1,415.5,614.4,415.1,614.4z"/>
	</g>
	<g>
		<path class="st11" d="M175.5,601.1c-0.4,0-0.8-0.4-0.8-0.8V207.6c0-0.4,0.4-0.8,0.8-0.8c0.4,0,0.8,0.4,0.8,0.8v392.8
			C176.3,600.8,175.9,601.1,175.5,601.1z"/>
	</g>
	<g>
		
			<ellipse transform="matrix(0.9984 -5.676689e-02 5.676689e-02 0.9984 -25.6544 32.2825)" class="st0" cx="555.4" cy="467.7" rx="74.6" ry="65.6"/>
	</g>
	<g>
		
			<ellipse transform="matrix(0.9984 -5.676370e-02 5.676370e-02 0.9984 -16.0973 32.0092)" class="st0" cx="555.4" cy="299.4" rx="74.6" ry="65.6"/>
	</g>
	<g>
		<g>
			<path class="st12" d="M501.8,451c-3.8,0-6.9-0.6-9.4-1.9c-2.5-1.3-4.6-2.8-6.2-4.6l4-5.4c1.4,1.4,3,2.6,4.8,3.6
				c1.8,1,3.8,1.5,6.2,1.5c2.5,0,4.6-0.6,6.1-1.9c1.6-1.2,2.4-2.9,2.4-5.1c0-1.2-0.2-2.3-0.7-3.3c-0.4-1-1.2-1.8-2.2-2.5
				c-1-0.7-2.4-1.2-4.2-1.6c-1.7-0.4-3.9-0.5-6.5-0.5v-6.1c2.3,0,4.2-0.2,5.7-0.5c1.5-0.4,2.8-0.9,3.7-1.5c0.9-0.7,1.6-1.4,2-2.4
				c0.4-0.9,0.6-1.9,0.6-3c0-1.9-0.6-3.4-1.8-4.5c-1.2-1.1-2.9-1.6-5-1.6c-1.8,0-3.5,0.4-5,1.2c-1.5,0.8-2.9,1.9-4.3,3.2l-4.3-5.2
				c2-1.7,4.1-3.1,6.4-4.2c2.3-1.1,4.8-1.6,7.5-1.6c2.2,0,4.3,0.3,6.1,0.8c1.8,0.5,3.4,1.3,4.7,2.4c1.3,1,2.3,2.3,3,3.8
				c0.7,1.5,1.1,3.3,1.1,5.2c0,2.6-0.7,4.8-2.1,6.5c-1.4,1.7-3.4,3.1-5.9,4.1v0.3c2.8,0.7,5,2.1,6.9,4c1.8,1.9,2.7,4.4,2.7,7.5
				c0,2.1-0.4,4-1.3,5.7c-0.8,1.6-2,3-3.5,4.2c-1.5,1.1-3.2,2-5.2,2.6C506.2,450.7,504.1,451,501.8,451z"/>
		</g>
	</g>
	<g>
		<g>
			<path class="st13" d="M597.5,561.1L597.5,561.1c1.6-0.5,2.5-2.2,2.1-3.8l-6.2-20.9c-0.5-1.6-2.2-2.5-3.8-2.1l0,0
				c-1.6,0.5-2.5,2.2-2.1,3.8l6.2,20.9C594.1,560.7,595.8,561.6,597.5,561.1z"/>
		</g>
		<g>
			<path class="st14" d="M660.3,621.9l-41.5-43c-6.5-6.7-15-6.4-21.3,0.7l-52.4,60l15.8,1.9l44.6-34.7l37.9,40.5L660.3,621.9z"/>
		</g>
		<g>
			<path class="st14" d="M690.4,610c0,0,9.2,45.4-29.3,44.5c-38.5-0.9-48.9,0-48.9,0l2.8-16.4l28.5-1.3l10.7-18.4L690.4,610z"/>
		</g>
		<g>
			<polygon class="st15" points="641.7,528.5 647,539.8 656.6,532.1 647,520.6 			"/>
		</g>
		<g>
			<path class="st16" d="M634.5,585.3c0,0-3.5-13.8-1.9-20.6c1.6-6.8,13.1-27.9,13.1-27.9l11.1-5.5c0,0,13.1,5,21.4,28.2
				s12.2,50.5,12.2,50.5l-38.1,10.8c-4,1.1-8.2-1.2-9.4-5.3L634.5,585.3z"/>
		</g>
		<g>
			<polygon class="st17" points="643,531.2 644.9,535.3 646.9,527 			"/>
		</g>
		<g>
			<path class="st15" d="M642.9,508.3c-1,0-2,0.4-2.6,1.3c-1.7,2.2-5,7.5-4.7,15.2c0.4,10.5,12.2,5.5,15.4,4.5s11.2-18.5,1.3-19.9
				C647.1,508.6,644.4,508.4,642.9,508.3z"/>
		</g>
		<g>
			<path class="st18" d="M653.9,527.9c6-0.7,8.8-7,7.3-12.9c-0.5-1.9-1.1-3.6-2-4.6c-4.1-5.1-10.1-7.7-17.7-2.8
				c0,0,0.9,10.3,11.3,20.4L653.9,527.9z"/>
		</g>
		<g>
			<path class="st19" d="M649.8,522.9c-1.1,1.6-3.1,2.1-4.4,1.1c-1.3-1-1.4-3-0.2-4.5s3.1-2.1,4.4-1.1
				C650.8,519.3,650.9,521.4,649.8,522.9z"/>
		</g>
		<g>
			<path class="st18" d="M689.4,545c-0.3-1.4,0.1-2.9,1-4.1c6.9-9.6-7.7-16.3-12-19.3c-4.5-3.2,0.7-11-8.8-14.1
				c-9.5-3.1-12.5,1.9-13,1.8c-0.7-0.2,1.2,9.2,1.2,9.2s4.7,1.5,4.7,11c0,9.5-2.5,14.4,3.4,21.8c5.9,7.4,29-2.4,29-2.4
				C691.1,548.8,689.8,546.8,689.4,545z"/>
		</g>
		<g>
			<path class="st10" d="M661,515.4c-0.1,0-0.2,0-0.3-0.1c-0.2-0.1-0.3-0.4-0.3-0.6c-0.1-0.5-1.2-2.7-1.7-3.9
				c-0.4-0.8-0.7-1.4-0.8-1.8c-0.1-0.3,0-0.7,0.3-0.9c0.3-0.1,0.7,0,0.9,0.3c0.2,0.4,0.5,1,0.8,1.8c2,4.2,2,4.4,1.8,4.9
				C661.4,515.3,661.2,515.4,661,515.4z M660.4,514.7L660.4,514.7L660.4,514.7z M660.4,514.4C660.4,514.4,660.4,514.4,660.4,514.4
				C660.4,514.4,660.4,514.4,660.4,514.4z M660.4,514.4C660.4,514.4,660.4,514.4,660.4,514.4C660.4,514.4,660.4,514.4,660.4,514.4z"
				/>
		</g>
		<g>
			<path class="st19" d="M637.3,582.1c-4.7,5.6-11.8,7.4-18.9,2.7l-29-29.6l7.4-3.1l25.7,18.3L637.3,582.1z"/>
		</g>
		<g>
			<path class="st15" d="M599.8,554.7l-4.5-6.1c-0.9-1.2-2.2-2.1-3.7-2.4l-6-1.3c-2.1-0.5-4,1.3-3.7,3.4l0,0l6.1,7.3
				c1.3,1.6,3.4,2.7,5.7,3.1l3.8,0.7L599.8,554.7z"/>
		</g>
		<g>
			<path class="st20" d="M604.8,555.5c0,0-6.2,12-5.4,12.5c0.8,0.6,26.7,24.2,26.7,24.2s9.2,6.4,15,1.1c9.5-8.8,20.2-24.6,20.2-24.6
				s1.9-22.7-3.6-22.8c-4.7,0-0.6,11-11.9,10.7c-1.8-0.1-8.8,17.3-10.5,16.8C623.1,570.1,604.8,555.5,604.8,555.5z"/>
		</g>
		<g>
			<path class="st21" d="M637.3,573.7c-0.1,0-0.2,0-0.4-0.1c-0.4-0.2-0.6-0.7-0.4-1.2c8.5-19.4,15.9-22.8,16.2-22.9
				c0.4-0.2,1,0,1.1,0.5c0.2,0.4,0,1-0.4,1.1c-0.1,0-7.1,3.4-15.3,22C637.9,573.5,637.6,573.7,637.3,573.7z"/>
		</g>
		<g>
			<path class="st21" d="M641.1,594.2c-0.2,0-0.4-0.1-0.6-0.2c-0.4-0.3-0.4-0.9-0.1-1.2l19.3-22.6c0.3-0.4,0.9-0.4,1.2-0.1
				c0.4,0.3,0.4,0.9,0.1,1.2l-19.3,22.6C641.5,594.1,641.3,594.2,641.1,594.2z"/>
		</g>
		<g>
			<path class="st22" d="M628,628.3c-0.3,0-0.6-0.2-0.6-0.5c-0.1-0.3,0.1-0.7,0.5-0.8l16.9-4.6c0.4-0.1,0.7,0.1,0.8,0.5
				c0.1,0.3-0.1,0.7-0.5,0.8l-16.9,4.6C628.1,628.3,628.1,628.3,628,628.3z"/>
		</g>
		<g>
			<path class="st19" d="M640.3,513.3c-0.1,0.1-2.2,1.7-5.6,3.6c-1.6,1,0.3,4.8,2.1,4.7c1.8-0.1,5.5-4.9,5.5-4.9L640.3,513.3z"/>
		</g>
		<g>
			<path class="st23" d="M637.3,523.3l2.5,0.5c0,0-0.6,3.5-2.5,2.3C636.8,525.8,637.3,523.3,637.3,523.3z"/>
		</g>
		<g>
			<path class="st19" d="M505.9,641.6l21-2.6v11.5l-16.9-1.1c0,0-8.9-1.4-8.8-2.1C501.5,646.6,505.9,641.6,505.9,641.6z"/>
		</g>
		<g>
			<path class="st14" d="M513.9,652l-1.1-11l75-10.2l92.5-4.6l-15.4,28.3c-28.8,2.4-78.3,0-78.3,0
				C545.1,656.1,543.5,654.2,513.9,652z"/>
		</g>
		<g>
			<path class="st24" d="M505.9,641.6l-7.9-3.8c-1.8-0.6-7.5-6.1-7.5-6.1l0,0c-1.7,0.1-1.8,1.8-1.4,3l11,19.4c0,0,3.4,4,10-4.7
				C506.6,646.7,503.7,644,505.9,641.6z"/>
		</g>
	</g>
	<g>
		<g>
			<g>
				<g>
					<path class="st25" d="M55.8,425.7c-6.4-1.4-12.5,1.4-15.2,9.2l-5.5,39.8l7.5-2.2l8.5-29L55.8,425.7z"/>
				</g>
				<g>
					<path class="st26" d="M42.6,472.4l-3.2,6.5c-0.6,1.3-1.7,2.3-3,2.9l-5.1,2.3c-1.8,0.8-3.7-0.5-3.7-2.6l0,0l4.5-8
						c1-1.8,2.7-3.2,4.6-4l3.3-1.3L42.6,472.4z"/>
				</g>
				<g>
					<path class="st27" d="M79,379c-9.5,1.9-36.6,43.7-37.4,48.1c-1,4.9-7.5,33-7.5,33l14.2,1.7c0,0,8.7-23.5,10.5-25.3
						c1.8-1.8,27.3-27.8,27.3-27.8L79,379z"/>
				</g>
			</g>
			<g>
				<path class="st25" d="M154.8,361.5c6.2,3.1,13.2,1.7,17.9-5.6l15.8-39.4l-8.3,0.4L164,344.4L154.8,361.5z"/>
			</g>
			<g>
				<path class="st26" d="M180.2,316.9l5-5.9c1-1.2,2.3-2,3.8-2.2l5.9-1.1c2-0.4,3.7,1.5,3.1,3.6l0,0l-6.7,7
					c-1.5,1.6-3.5,2.6-5.8,2.9l-3.7,0.5L180.2,316.9z"/>
			</g>
			<g>
				<path class="st27" d="M119,403.4c10.3,0.5,48.7-35.6,50.7-39.8c2.2-4.7,16.1-31.9,16.1-31.9l-14.1-5.4c0,0-14.9,21.9-17.3,23.3
					c-2.4,1.4-35.1,21.6-35.1,21.6L119,403.4z"/>
			</g>
			<g>
				<path class="st28" d="M117.3,354.4c0,0,4.2-5.7-2.4-10.6c-6.6-4.9-6.2,8.2-5.9,8.4C109.2,352.4,117.3,354.4,117.3,354.4z"/>
			</g>
			<g>
				<path class="st28" d="M99.2,357.1c0,0,1.5,6.6,6.6,6.2c5.1-0.4,3.5-14.9,3.5-14.9L99.2,357.1z"/>
			</g>
			<g>
				<path class="st25" d="M115.4,358.8c0,0,0.3,7.3,0.6,13.4c0.1,1.6-0.8,3.1-2.4,4c-1.5,0.8-3.5,0.9-5.1,0.1
					c-0.5-0.3-1-0.5-1.5-0.7c-2.2-1.1-3.5-3.2-3.3-5.4c0.4-5.7,1.2-16,1.2-16L115.4,358.8L115.4,358.8z"/>
			</g>
			<g>
				<polygon class="st29" points="116.1,363.4 115.8,367.5 111,364.2 				"/>
			</g>
			<g>
				<path class="st25" d="M102,351.8c-0.6-2.1,0.5-4.2,2.6-4.8c2.2-0.7,4.9-1.5,7.1-2.1c2-0.6,3.9,0.7,4.8,2.6
					c1.1,2.3,2.2,7.4,2.6,11.2c0.2,2.1-0.8,4.5-2.9,5.1c-2.2,0.7-9.3,0.5-11.1-3.2C103.7,357.7,102.9,354.9,102,351.8L102,351.8z"/>
			</g>
			<g>
				<path class="st28" d="M98.3,358.5c0,0-2.2-8,0.6-11.5c3.7-4.7,9.1-7.7,16.1-3.3c0,0,3.7,1.6-7.2,4.6c-1.4,0.4,1.5,6.9-0.2,7.7
					C105.2,357.2,102.2,358.1,98.3,358.5L98.3,358.5z"/>
			</g>
			<g>
				<path class="st25" d="M102.2,360.7c1,1.4,2.8,1.9,4,1c1.2-0.9,1.3-2.7,0.2-4.1c-1-1.4-2.8-1.9-4-1
					C101.3,357.4,101.2,359.3,102.2,360.7z"/>
			</g>
			<g>
				<ellipse class="st30" cx="102.3" cy="644.4" rx="65" ry="9.6"/>
			</g>
			<g>
				<path class="st31" d="M126,633.2c0,0-13.9-58.9-4.5-82.1l-13.1-79.8l37.4,2.6l-9.4,160L126,633.2z"/>
			</g>
			<g>
				<path class="st24" d="M136.6,630.9l5.8,5.4c1.6,1.3,9.7,3.9,9.7,3.9l0,0c0.9,1.7-0.5,2.5-1.8,2.7l-23.4-0.5
					c0,0-5.5-1.1-1.6-11.5C129.7,632.8,135.8,634.2,136.6,630.9z"/>
			</g>
			<g>
				<path class="st32" d="M148.2,486.3l-1.5,67.6l-5.5,67.8H114c0,0,1.5-11.8,0.9-15.5c-0.6-3.7-4.7-39.2,2.2-55.5l-6.4-66.5
					L148.2,486.3z"/>
			</g>
			<g>
				<path class="st33" d="M116.9,550.6l-6.4-66.5l13,0.7l4.7,48.7c0.9,9.1,0.4,18.2-1,27.1c-2.9,17.7,0,42.4,0.5,45.5
					c0.6,3.7-0.9,15.5-0.9,15.5h-12.9c0,0,1.5-11.8,0.9-15.5C114.1,602.4,110.1,567,116.9,550.6z"/>
			</g>
			<g>
				<path class="st31" d="M48.7,629.1c0,0,4.4-59.7,20.7-80.7l11.6-80l36.1,9.1l-58.6,154L48.7,629.1z"/>
			</g>
			<g>
				<path class="st24" d="M58.2,629.7l2.3,7.3c0.6,1.9,6.2,7.9,6.2,7.9l0,0c-0.2,1.8-2,1.8-3.2,1.4l-20.2-11.7c0,0-4.1-3.6,5.5-10.3
					C51.4,628,55.5,632,58.2,629.7z"/>
			</g>
			<g>
				<path class="st32" d="M119,483.9l-25.7,71.6l-26.1,65l-26.8-4.8c0,0,5.1-11.2,5.6-15c0.5-3.7,7.4-39,19.2-53.7l14.1-72.4
					L119,483.9z"/>
			</g>
			<g>
				<path class="st32" d="M92.4,431.7l50.9,3.9c8.3,3,5,50.7,5,50.7l-33.4,1.5c-15.5-0.3-33.9,11.9-35.8-14
					C76.7,444.2,92.4,431.7,92.4,431.7z"/>
			</g>
			<g>
				<path class="st27" d="M139.5,373.9l-19.4-3.8l-15.3-1l-24.5,8.3c-6.6,3.2-4.5,9.4-2,16.3l-1.9,22.2c-1.6,8.5-2.5,28.7-1.6,46
					c27.6,10.2,66.6,8.2,75.4-4.4C148.6,422.7,150.5,411.2,139.5,373.9z"/>
			</g>
			<g>
				<path class="st26" d="M120.1,370.1c0,0,6.1,15.2-4.3,15.8c-10.4,0.7-16.1-15.1-16.1-15.1l7.6-3.4L120.1,370.1z"/>
			</g>
			<g>
				<path class="st34" d="M74.7,419.3c-0.1,0-0.2,0-0.2-0.1c-0.2-0.1-0.3-0.4-0.1-0.6l6.9-11.4l-1.1-2.6c-0.1-0.2,0-0.5,0.2-0.6
					c0.2-0.1,0.5,0,0.6,0.2l1.2,2.8c0.1,0.1,0,0.3,0,0.4l-7,11.6C75,419.3,74.8,419.3,74.7,419.3z"/>
			</g>
		</g>
		<g>
			<path class="st23" d="M116.7,357.4l-3.5,1.1c0,0,1,2.5,2.6,1.7C117.4,359.5,116.7,357.4,116.7,357.4z"/>
		</g>
	</g>
	<g>
		<path class="st10" d="M423.1,615c-76.7-31.2-153.6-46.2-231-29.6l0-416.1c87.2-22.5,165.1-14.8,231,30.9L423.1,615z"/>
	</g>
	<g>
		<path class="st11" d="M423.1,603c-0.4,0-0.8-0.4-0.8-0.8l0-396.5c0-0.4,0.4-0.8,0.8-0.8c0.4,0,0.8,0.4,0.8,0.8l0,396.5
			C423.9,602.6,423.5,603,423.1,603z"/>
	</g>
	<g>
		
			<ellipse transform="matrix(0.9984 -5.676254e-02 5.676254e-02 0.9984 -15.6899 17.7342)" class="st0" cx="304.3" cy="285.1" rx="74.6" ry="65.6"/>
	</g>
	<g>
		
			<ellipse transform="matrix(0.9984 -5.675935e-02 5.675935e-02 0.9984 -25.896 18.3142)" class="st0" cx="309.5" cy="465" rx="74.6" ry="65.6"/>
	</g>
	<g>
		<g>
			<path class="st12" d="M240.8,439c3.2-3.1,6.1-6,8.7-8.6c2.6-2.6,4.8-5,6.6-7.3c1.8-2.2,3.2-4.3,4.2-6.2c1-1.9,1.5-3.8,1.5-5.5
				c0-2.5-0.7-4.4-2-5.8c-1.3-1.4-3.2-2.1-5.7-2.1c-1.8,0-3.4,0.5-4.9,1.5c-1.5,1-2.8,2.2-4.1,3.6l-4.6-4.6c2.1-2.3,4.3-4,6.6-5.3
				c2.3-1.2,5-1.9,8.2-1.9c2.2,0,4.2,0.3,6,1c1.8,0.7,3.3,1.6,4.6,2.9c1.3,1.2,2.2,2.7,2.9,4.5c0.7,1.7,1.1,3.7,1.1,5.8
				c0,2-0.4,4.1-1.3,6.2c-0.9,2.1-2.1,4.2-3.6,6.4c-1.5,2.2-3.3,4.4-5.3,6.6c-2,2.3-4.2,4.6-6.5,7c1.2-0.1,2.5-0.2,3.9-0.3
				c1.4-0.1,2.7-0.2,3.8-0.2h11.3v7.1h-31.2V439z"/>
		</g>
	</g>
	<g>
		<g>
			<path class="st12" d="M234.4,270.6h10.3v-30.4h-8.5v-5.2c2.3-0.4,4.3-1,6-1.6c1.7-0.6,3.2-1.3,4.7-2.2h6.2v39.4h9.1v6.8h-27.8
				V270.6z"/>
		</g>
	</g>
	<g>
		<g>
			<path class="st35" d="M414.8,308.3l-36.8,4.4l-1.1-9c-1.1-9.6,5.7-18.3,15.3-19.4l2.1-0.2c9.6-1.1,18.3,5.7,19.4,15.3
				L414.8,308.3z"/>
		</g>
		<g>
			
				<rect x="380.9" y="310.3" transform="matrix(0.9929 -0.1187 0.1187 0.9929 -36.9739 49.7977)" class="st23" width="37" height="49.8"/>
		</g>
		<g>
			
				<rect x="397.4" y="334.8" transform="matrix(0.9929 -0.1187 0.1187 0.9929 -53.198 52.725)" class="st27" width="37" height="276"/>
		</g>
		<g>
			<path class="st23" d="M413.9,612l20,38.5c1.5,2.8,5.6,2.3,6.4-0.8l10.4-42.2L413.9,612z"/>
		</g>
		<g>
			<path class="st24" d="M429.4,641.9l6.2,12c0.9,1.7,3.3,1.4,3.8-0.4l3.3-13.3L429.4,641.9z"/>
		</g>
		<g>
			<path class="st36" d="M432.7,607.9c-0.6,0-1.1-0.4-1.2-1l-32-268c-0.1-0.6,0.4-1.2,1-1.3c0.7-0.1,1.2,0.4,1.3,1l32,268
				c0.1,0.6-0.4,1.2-1,1.3C432.8,607.9,432.8,607.9,432.7,607.9z"/>
		</g>
	</g>
	<g>
		<path class="st27" d="M520,177.6h-2H506c-12.8,0-23.1,10.3-23.1,23.1l0,0h24c6.1,0,11.1,5,11.1,11.1l0,154.8l30.9-42l31.8,42
			l0-163.4c0-14.1-11.4-25.6-25.6-25.6H520z"/>
	</g>
	<g>
		<rect x="686.3" y="257.1" class="st20" width="26.7" height="13.5"/>
	</g>
	<g>
		<rect x="686.3" y="295.7" class="st37" width="26.7" height="13.5"/>
	</g>
	<g>
		<path d="M299.7,274.6c0.9,0.3,1.6,0.5,2.3,0.7c0.8,0.2,1.3,0.7,1.1,1.6c0,0.1,0.1,0.2,0.1,0.4c0.3,0.1,0.7,0.2,1.1,0.3
			c5.8,1.4,11.6,3.2,17.3,4.9c5.3,1.5,10.7,3,16,4.6c4.6,1.4,9.2,3,13.7,4.5c2.2,0.7,4.2,1.8,6,3.1c0.6,0.4,1.1,0.8,1.6,1.3
			c0.9,1,0.9,2,0,3c-0.8,1-2,1.4-3.2,1.3c-1.1-0.1-2.3-0.3-3.3-0.6c-3.4-1-6.7-2.2-9.9-3.6c-9.2-4-18.5-7.5-27.9-10.8
			c-3.3-1.2-6.7-2.1-10.1-3.1c-0.8-0.2-1.5-0.4-2.3-0.6c-0.4,0.2-0.9,0.6-1.3,0.7c-0.5,0.1-1.1-0.1-1.7-0.1
			c-0.6-0.1-1.1-0.2-1.7-0.4c-0.1,0.3-0.3,0.6-0.4,0.9c-0.2,0.5-0.3,1-0.5,1.5c-0.8,2-1.2,4.1-0.8,6.3c0.1,0.7,0,1.4,0,2
			c0,0.4-0.1,0.8-0.2,1.2c-0.3,1-0.9,1.4-1.9,1.2c-1-0.1-1.9-0.3-2.8-0.6c-3.7-0.9-7.3-1.9-10.9-3.4c-0.3-0.1-0.5-0.2-0.8-0.3
			c-1.4-0.7-1.8-1.8-1.2-3.3c0.5-1.1,1.2-2.1,2.1-2.8c1.5-1.1,2.2-2.7,2.7-4.4c1.4-4.3,2.8-8.5,4.2-12.7c0.5-1.4,0.6-2.7,0.3-4.2
			c-0.2-0.8-0.2-1.7,0-2.5c0.3-1.8,1.6-2.7,3.4-2.5c1.7,0.3,3.3,0.8,4.9,1.4c1.9,0.7,3.8,1.4,5.7,2.1c0.2,0.1,0.4,0.1,0.6,0.2
			c2.3,0.9,3.1,3.1,1.8,5.3c-0.4,0.6-0.9,1.1-1.4,1.7c-0.3,0.4-0.8,0.7-1.1,1c-0.3,0.3-0.5,0.6-0.7,1c-0.3,0.8-0.5,1.7-0.8,2.6
			C299.9,273.8,299.9,274.1,299.7,274.6z M302.8,278.8c-0.4,0.6-0.4,1,0.1,1.2c0.6,0.2,1.2,0.4,1.8,0.6c3.4,1,6.8,1.9,10.1,3.1
			c6.6,2.4,13.1,4.8,19.6,7.3c4.1,1.6,8.2,3.4,12.3,5c2.3,0.9,4.7,1.7,7.1,2.4c0.8,0.3,1.8,0.3,2.7,0.3c0.8,0,1.5-0.4,1.8-1.3
			c-0.3-0.8-1-1.1-1.6-1.5c-1.7-1.2-3.6-2.1-5.6-2.8c-4.7-1.6-9.3-3.3-14-4.6c-5.1-1.4-10.1-2.9-15.2-4.3c-5.8-1.6-11.5-3.3-17.3-5
			C303.8,279,303.3,278.9,302.8,278.8z M285,279.7c0.1,0.1,0.3,0.2,0.4,0.2c3.1,0.9,6.2,1.9,9.3,2.8c0.2,0.1,0.5,0.1,0.7,0.1
			c0.1-0.2,0.2-0.3,0.2-0.4c0.9-2.9,1.8-5.8,2.7-8.8c0.1-0.2,0-0.5,0.1-0.9c-3.3-1-6.6-2.1-9.8-3.1c-0.1,0-0.3,0.1-0.5,0.1
			c-0.9,2.8-1.9,5.7-2.8,8.5c-0.1,0.3-0.2,0.6-0.3,1C284.9,279.4,285,279.5,285,279.7z M294.2,293.1c0.3-1.6,0.2-4.4-0.2-5.9
			c-3.6-1.1-7.3-2.1-11-3.2c-1.2,0.9-2.2,1.9-3,3.1c-0.9,1.4-0.8,1.7,0.7,2.4c3.6,1.5,7.3,2.5,11,3.4
			C292.5,293.1,293.3,293.4,294.2,293.1z M300.3,268.9c0.5-0.4,1-0.8,1.4-1.1c0.1-0.1,0.3-0.2,0.4-0.3c0.5-0.5,0.9-1,1-1.7
			c0.2-1-0.1-1.6-1.1-2.1c-0.3-0.1-0.5-0.2-0.8-0.3c-2.1-0.6-4.1-1.4-6.1-2.2c-1.3-0.5-2.7-0.9-4.1-1.2c-1.4-0.3-2,0.2-2.1,1.7
			c0,0.2,0,0.5,0,0.7c0.1,0.9,0.3,1.8,0.4,2.6C290.4,265.5,298.2,268.3,300.3,268.9z M295,284.4c-3.6-1.1-7.1-2.2-10.5-3.1
			c-0.5,0.4-0.6,0.8-0.5,1.2c1.7,0.8,9.5,3,10.6,3C294.7,285.3,294.8,285,295,284.4z M288.8,267.9c0.2,0.2,0.3,0.3,0.4,0.3
			c3,1,6,1.9,9,2.9c0.2,0.1,0.4,0.1,0.7,0.1c0.1,0,0.3-0.2,0.3-0.3c0-0.1,0-0.3-0.1-0.5c-0.1-0.1-0.3-0.2-0.4-0.3
			c-3.1-1.1-6.2-2.2-9.2-3.2c-0.1,0-0.2,0.1-0.4,0.1C289,267.2,288.9,267.5,288.8,267.9z M301.5,277c-0.7-0.4-1.4-0.6-2.3-0.7
			c-0.4,1.3-0.8,2.5-1.2,3.8c0.8,0.4,1.6,0.6,2.6,0.5C300.8,279.4,301.4,278.2,301.5,277z"/>
		<path d="M282.3,318c-3.1,0.1-6.1,0.2-9.2,0.3c-0.3,0-0.6,0-0.8,0c-0.4-0.1-0.6-0.3-0.7-0.7c-0.1-0.5-0.2-1-0.2-1.5
			c0-0.8,0-1.7,0.1-2.5c0.1-1.1,0.6-2,1.5-2.8c0.9-0.7,1.8-1.2,2.8-1.5c3.1-1.1,6.3-1.4,9.6-1.2c1.5,0.1,2.9,0.3,4.3,0.8
			c0.7,0.3,1.5,0.6,2.1,1.1c1.1,0.7,1.6,1.9,1.7,3.2c0.1,1,0.1,2,0.1,3.1c0,1.2-0.3,1.4-1.5,1.5c-0.2,0-0.5,0-0.7,0
			C288.4,317.8,285.3,317.9,282.3,318C282.3,318,282.3,318,282.3,318z M292.1,313.5c-0.4,0-0.8-0.1-1.2-0.1
			c-5.7,0.2-11.3,0.4-17,0.6c-0.3,0-0.6,0.1-1,0.2c0,0.9-0.3,1.6,0.2,2.5c0.6,0,1.2,0,1.9,0c1.6-0.1,3.2-0.1,4.8-0.2
			c3.6-0.1,7.3-0.2,10.9-0.4c0.5,0,1-0.1,1.5-0.2c0-0.6,0.1-1.1,0.1-1.6C292.2,314.1,292.1,313.8,292.1,313.5z M274,312
			c5.7,0.2,11.3,0,16.9-0.2c0.1,0,0.2-0.1,0.3-0.3c-0.2-0.2-0.3-0.4-0.6-0.5c-0.9-0.4-1.9-0.8-2.9-1c-3.5-0.7-7-0.6-10.4,0.4
			c-1,0.3-1.9,0.8-2.8,1.2C274.4,311.6,274.2,311.9,274,312z"/>
		<path class="st10" d="M302.8,278.8c0.5,0.1,1.1,0.2,1.6,0.4c5.8,1.7,11.5,3.3,17.3,5c5.1,1.4,10.1,2.9,15.2,4.3
			c4.8,1.3,9.4,3,14,4.6c2,0.7,3.9,1.7,5.6,2.8c0.6,0.4,1.3,0.8,1.6,1.5c-0.3,0.9-1,1.2-1.8,1.3c-0.9,0-1.8,0-2.7-0.3
			c-2.4-0.7-4.8-1.5-7.1-2.4c-4.1-1.6-8.1-3.4-12.3-5c-6.5-2.5-13-5-19.6-7.3c-3.3-1.2-6.7-2.1-10.1-3.1c-0.6-0.2-1.2-0.4-1.8-0.6
			C302.3,279.8,302.3,279.4,302.8,278.8z"/>
		<path class="st10" d="M285,279.7c0-0.1-0.1-0.3-0.1-0.4c0.1-0.3,0.2-0.7,0.3-1c0.9-2.8,1.9-5.7,2.8-8.5c0.2-0.1,0.4-0.2,0.5-0.1
			c3.2,1,6.5,2,9.8,3.1c0,0.3,0,0.6-0.1,0.9c-0.9,2.9-1.8,5.8-2.7,8.8c0,0.1-0.1,0.2-0.2,0.4c-0.2,0-0.5,0-0.7-0.1
			c-3.1-0.9-6.2-1.8-9.3-2.8C285.3,279.9,285.1,279.7,285,279.7z"/>
		<path class="st10" d="M294.2,293.1c-0.9,0.2-1.7-0.1-2.4-0.2c-3.7-0.9-7.4-1.9-11-3.4c-1.5-0.6-1.6-1-0.7-2.4
			c0.8-1.2,1.8-2.2,3-3.1c3.7,1.1,7.4,2.2,11,3.2C294.4,288.8,294.5,291.5,294.2,293.1z"/>
		<path class="st10" d="M300.3,268.9c-2-0.5-9.9-3.4-11-4c-0.1-0.8-0.3-1.7-0.4-2.6c0-0.2,0-0.5,0-0.7c0.2-1.5,0.7-2,2.1-1.7
			c1.4,0.3,2.8,0.7,4.1,1.2c2,0.8,4,1.6,6.1,2.2c0.3,0.1,0.5,0.2,0.8,0.3c0.9,0.4,1.3,1.1,1.1,2.1c-0.1,0.7-0.5,1.3-1,1.7
			c-0.1,0.1-0.2,0.2-0.4,0.3C301.2,268.1,300.8,268.4,300.3,268.9z"/>
		<path class="st10" d="M295,284.4c-0.2,0.5-0.3,0.8-0.4,1.1c-1.1,0-8.9-2.2-10.6-3c-0.1-0.4,0-0.8,0.5-1.2
			C287.9,282.3,291.3,283.4,295,284.4z"/>
		<path class="st10" d="M288.8,267.9c0.1-0.3,0.2-0.7,0.3-0.9c0.2,0,0.3-0.1,0.4-0.1c3.1,1.1,6.2,2.2,9.2,3.2
			c0.2,0.1,0.3,0.1,0.4,0.3c0.1,0.1,0.1,0.3,0.1,0.5c0,0.1-0.2,0.3-0.3,0.3c-0.2,0-0.4,0-0.7-0.1c-3-1-6-1.9-9-2.9
			C289.1,268.1,289,268.1,288.8,267.9z"/>
		<path class="st10" d="M301.5,277c-0.1,1.3-0.7,2.4-0.9,3.6c-1,0.2-1.7-0.1-2.6-0.5c0.4-1.3,0.8-2.5,1.2-3.8
			C300,276.3,300.8,276.5,301.5,277z"/>
		<path class="st10" d="M292.1,313.5c0.1,0.4,0.1,0.6,0.1,0.9c0,0.5,0,1-0.1,1.6c-0.6,0.1-1.1,0.1-1.5,0.2
			c-3.6,0.1-7.3,0.2-10.9,0.4c-1.6,0.1-3.2,0.1-4.8,0.2c-0.6,0-1.2,0-1.9,0c-0.5-0.8-0.2-1.6-0.2-2.5c0.3-0.1,0.6-0.2,1-0.2
			c5.7-0.2,11.3-0.4,17-0.6C291.3,313.4,291.6,313.4,292.1,313.5z"/>
		<path class="st10" d="M274,312c0.2-0.2,0.4-0.4,0.6-0.5c0.9-0.4,1.8-0.9,2.8-1.2c3.4-1,6.9-1.1,10.4-0.4c1,0.2,1.9,0.7,2.9,1
			c0.2,0.1,0.4,0.4,0.6,0.5c-0.2,0.1-0.2,0.3-0.3,0.3C285.4,312,279.8,312.3,274,312z"/>
	</g>
	<g>
		<path d="M336.9,455.4c0.4,1.5,0.9,3,1.3,4.4c1.3,4.3,2.4,8.6,3.8,12.9c1,3,0.4,5.6-1.2,8.1c-1.5,2.3-3.5,4.2-5.6,5.9
			c-2.9,2.3-6.1,4.2-9.5,5.9c-4.8,2.3-9.7,4-14.9,4.7c-3,0.4-6,0.5-9-0.2c-2-0.5-3.7-1.4-5-3.1c-0.5-0.6-0.8-1.3-1.1-2
			c-2.4-6-4.9-12-7.3-18.1c-0.3-0.6-0.6-1.3-0.8-1.9c-0.4-0.1-0.8-0.2-1.2-0.2c-3.5-0.2-6.9-0.4-10.4-0.6c-0.8,0-1.5,0-2.1,0.7
			c1.3,8.2,2.9,16.3,5.3,24.4c0.4,0.2,0.8,0.5,1.3,0.8c2.8,1.6,4.6,5.4,3.6,9c-0.5,1.9-1.4,3.5-2.3,5.2c-0.5,0.8-1.2,0.8-1.8,0
			c-0.8-1-1.6-2.1-2.4-3.2c-1.4-1.9-2.2-4.1-2-6.6c0.1-1.4,0.6-2.7,1.3-3.9c0.4-0.7,0.4-1.4,0.2-2.2c-0.6-2.3-1.1-4.5-1.7-6.8
			c-1.1-4.1-1.8-8.3-2.4-12.4c-0.3-1.7-0.6-3.3-0.9-5.1c-0.5-0.1-0.9-0.2-1.3-0.2c-2-0.1-3.9-0.2-5.9-0.4c-0.1,0-0.3,0-0.4,0
			c-0.5,0-0.9-0.2-1.1-0.6c-0.2-0.6-0.3-1.1,0.2-1.6c0.4-0.4,0.9-0.7,1.3-1.1c9.6-7,19.1-14.1,28.7-21.1c3.6-2.7,7.2-5.3,10.8-8
			c0.5-0.4,1.1-0.6,1.7-0.6c5.2-0.1,10.3-0.2,15.5-0.3c10.6-0.2,21.2-0.4,31.8-0.6c0.6,0,1.1,0,1.7,0.1c0.7,0.1,1,0.9,0.5,1.5
			c-0.4,0.4-0.8,0.8-1.2,1.2c-5.3,4.9-10.6,9.7-15.9,14.6C337.9,454.4,337.4,454.9,336.9,455.4z M352.7,438.4c-0.9,0-1.4-0.1-1.9,0
			c-2.8,0.1-5.6,0.2-8.3,0.2c-11.7,0.2-23.3,0.4-35,0.6c-1.2,0-2.2,0.3-3.1,1.1c-4.4,3.3-8.8,6.5-13.3,9.8
			c-7.8,5.8-15.7,11.5-23.5,17.3c-0.5,0.4-1.1,0.6-1.4,1.4c0.5,0.1,0.9,0.2,1.3,0.2c1.8,0.1,3.7,0.2,5.5,0.3c1,0.1,1.8-0.1,2.7-0.6
			c8.6-4.9,17.5-9.3,26.3-13.8c0.3-0.1,0.6-0.3,0.9-0.3c0.2,0,0.5,0.1,0.6,0.3c0.2,0.3,0.2,0.6-0.1,0.9c-0.3,0.3-0.7,0.5-1.1,0.7
			c-1.9,1-3.9,2.1-5.9,3.1c-5.6,3-11.3,5.9-16.9,8.9c-0.4,0.2-0.9,0.3-1.1,1c0.8,0.3,1.5,0.2,2.3,0.3c5.4,0.3,10.7,0.6,16.1,0.9
			c6,0.4,12.1,0.7,18.1,1.1c1.2,0.1,2-0.3,2.9-1c11.1-10.3,22.3-20.5,33.5-30.7C351.5,439.6,351.9,439.1,352.7,438.4z M289.5,472
			c0.3,0.8,0.5,1.4,0.7,2c1.2,3.1,2.5,6.2,3.8,9.3c1,2.6,2.1,5.1,3.1,7.7c1,2.4,2.7,3.9,5.3,4.4c0.2,0,0.4,0.1,0.6,0.1
			c2.8,0.6,5.5,0.3,8.3-0.2c7.9-1.4,15.1-4.4,21.6-9.1c1.8-1.3,3.5-2.7,4.9-4.4c1-1.1,1.8-2.3,2.4-3.6c0.7-1.4,0.8-2.9,0.3-4.4
			c-1.6-5.4-3.2-10.8-4.7-16.1c-0.1-0.3-0.3-0.5-0.5-0.8c-0.5,0.5-1,0.8-1.4,1.2c-4.5,4.1-9,8.3-13.5,12.4c-0.8,0.8-1.7,1.5-2.5,2.3
			c-0.6,0.6-1.2,0.8-2,0.8c-3.3-0.3-6.5-0.4-9.8-0.6c-5-0.3-9.9-0.6-14.9-0.9C290.7,472,290.2,472,289.5,472z M278.5,497.9
			c-2.6,3.5-1.2,8.4,2.2,11C284.1,504.5,282.3,499.1,278.5,497.9z"/>
		<path class="st10" d="M352.7,438.4c-0.8,0.7-1.1,1.2-1.6,1.5c-11.2,10.2-22.3,20.5-33.5,30.7c-0.9,0.8-1.7,1.1-2.9,1
			c-6-0.4-12.1-0.7-18.1-1.1c-5.4-0.3-10.7-0.6-16.1-0.9c-0.7,0-1.5,0-2.3-0.3c0.2-0.6,0.7-0.8,1.1-1c5.6-3,11.3-5.9,16.9-8.9
			c2-1,3.9-2.1,5.9-3.1c0.4-0.2,0.8-0.5,1.1-0.7c0.3-0.2,0.3-0.6,0.1-0.9c-0.1-0.2-0.4-0.3-0.6-0.3c-0.3,0-0.6,0.1-0.9,0.3
			c-8.9,4.4-17.7,8.9-26.3,13.8c-0.9,0.5-1.7,0.7-2.7,0.6c-1.8-0.2-3.7-0.2-5.5-0.3c-0.4,0-0.8-0.1-1.3-0.2c0.3-0.8,0.9-1,1.4-1.4
			c7.8-5.8,15.6-11.5,23.5-17.3c4.4-3.3,8.9-6.5,13.3-9.8c1-0.7,1.9-1,3.1-1.1c11.7-0.2,23.4-0.4,35-0.6c2.8-0.1,5.6-0.1,8.3-0.2
			C351.2,438.3,351.7,438.4,352.7,438.4z"/>
		<path class="st10" d="M289.5,472c0.7,0,1.1,0,1.6,0c5,0.3,9.9,0.6,14.9,0.9c3.3,0.2,6.5,0.4,9.8,0.6c0.8,0.1,1.4-0.2,2-0.8
			c0.8-0.8,1.7-1.5,2.5-2.3c4.5-4.1,9-8.3,13.5-12.4c0.4-0.4,0.8-0.7,1.4-1.2c0.2,0.3,0.4,0.5,0.5,0.8c1.6,5.4,3.2,10.8,4.7,16.1
			c0.4,1.5,0.3,3-0.3,4.4c-0.6,1.3-1.5,2.5-2.4,3.6c-1.5,1.7-3.1,3.1-4.9,4.4c-6.5,4.7-13.7,7.7-21.6,9.1c-2.7,0.5-5.5,0.7-8.3,0.2
			c-0.2,0-0.4-0.1-0.6-0.1c-2.6-0.5-4.3-2-5.3-4.4c-1-2.6-2.1-5.1-3.1-7.7c-1.3-3.1-2.5-6.2-3.8-9.3
			C290,473.4,289.8,472.9,289.5,472z"/>
		<path class="st10" d="M278.5,497.9c3.8,1.2,5.5,6.6,2.2,11C277.3,506.3,275.9,501.4,278.5,497.9z"/>
	</g>
	<g>
		<path d="M543.8,443.5c0.1-0.3,0.2-0.6,0.2-0.8c0.6-3.6,2.6-6.4,5.4-8.6c2.5-2,5.4-3.2,8.5-3.9c4.4-0.9,8.6-0.6,12.8,1
			c2.2,0.8,4.1,2,5.8,3.6c2.6,2.5,4,5.5,4.2,9c0,0.3,0,0.6,0.1,1.1c0.4,0.1,0.8,0.2,1.1,0.3c0.8,0.1,1.6,0,2.4,0.1
			c3.7,0.3,7.3,0.5,11,0.8c0.8,0.1,1.6,0.2,2.3,0.4c2.6,0.6,4.3,2.2,5,4.8c0.4,1.5,0.7,3.1,0.8,4.6c0.1,2.5,0.1,5,0.1,7.5
			c0,4.5,0,8.9-0.1,13.4c0,0.9,0,1.8-0.1,2.7c-0.1,1.4-0.2,2.7-0.3,4.1c0,1.3,0,2.6,0,3.9c0.1,2.5-0.2,5-0.5,7.4
			c-0.1,1-0.1,2.1,0,3.1c0.3,1.9-0.2,3.6-1.1,5.3c-0.4,0.8-1.1,1.5-1.9,2c-1.6,0.9-3.2,1.4-5,1.4c-0.9,0-1.8,0.1-2.7,0.2
			c-0.4,0-0.8,0.1-1.2,0.1c-6.4,0-12.8-0.2-19.2-0.9c-2.8-0.3-5.6-0.4-8.4-0.6c-0.6,0-1.2-0.1-1.8-0.1c-2-0.1-3.9-0.1-5.9-0.2
			c-0.9,0-1.7-0.1-2.6-0.1c-1.6,0-3.1,0-4.7-0.1c-0.5,0-0.9,0-1.4,0c-2.4-0.3-4.7-0.1-7.1,0c-3.2,0.2-6.4,0.1-9.6-0.2
			c-2.1-0.2-3.7-1.1-4.8-3c-1-1.6-1.5-3.3-1.7-5.2c-0.1-1.9-0.1-3.8,0-5.7c0.2-2.4,0.2-4.8,0.3-7.3c0.2-3.7,0.4-7.5,0.5-11.2
			c0-0.5,0.1-1,0.1-1.6c0.1-4.3,0.1-8.5,0.2-12.8c0.1-2.4,0.3-4.7,0.4-7.1c0.2-3,1.9-5,4.5-6.2c2-0.9,4.2-1.5,6.5-1.5
			C538.5,443.4,541,443.4,543.8,443.5z M572,478.6c0.4,0,0.7,0,0.9,0c4.5-0.8,8.8-2,13-3.8c5.1-2.2,9.8-5,14.1-8.5
			c1-0.8,1.5-1.6,1.5-2.8c0-2.4,0.1-4.9,0-7.3c-0.1-1.5-0.4-3-0.7-4.5c-0.2-1.2-0.9-2.2-2-2.8c-0.7-0.4-1.6-0.7-2.4-0.9
			c-2.7-0.3-5.3-0.7-8-0.8c-6-0.4-12-0.6-18.1-0.9c-6-0.3-12-0.5-18.1-0.7c-5.5-0.2-11-0.3-16.5-0.4c-1.9,0-3.7,0.4-5.3,1.1
			c-2.2,1-3.6,2.6-3.7,5.1c-0.1,2-0.3,4.1-0.4,6.1c-0.1,1.4,0,2.9,0,4.2c0.7,0.7,1.4,1.3,1.9,1.9c7,7.6,15.5,12.4,25.5,14.6
			c0.7,0.2,1.5,0.4,2.4,0.3c0.1-0.8,0.1-1.6,0.3-2.3c0.2-1.3,0.7-1.7,2-1.6c2,0.1,4.1,0.2,6.1,0.3c2,0.1,4.1,0.2,6.1,0.3
			c1,0.1,1.3,0.4,1.3,1.3C572,477.2,572,477.8,572,478.6z M526.4,464.3c-0.1,0.8-0.2,1.1-0.2,1.4c0,1.6-0.1,3.3-0.1,4.9
			c0,1-0.1,2.1-0.1,3.1c-0.2,3.5-0.4,7.1-0.5,10.6c0,0.5,0.1,1,0.1,1.6c0,0.7,0,1.4,0,2.2c-0.2,2.8-0.6,5.6-0.3,8.4
			c0.2,1.8,0.7,3.3,1.7,4.7c0.5,0.8,1.2,1.4,2.2,1.5c0.6,0.1,1.3,0.3,1.9,0.3c1.9,0.1,3.8,0.2,5.7,0.1c5.8-0.2,11.7-0.2,17.5,0
			c0.5,0,1,0,1.6,0c1,0,2.1,0,3.1,0.1c1.5,0.1,3,0.2,4.5,0.2c0.7,0,1.3,0,2,0.1c4.5,0.4,9,1,13.5,1.3c5.6,0.4,11.3,0.3,16.9-0.1
			c3-0.3,4.1-1.7,4.6-4c0.2-0.8,0.1-1.7,0.1-2.5c0-1.2-0.1-2.5,0.1-3.7c0.2-2.2,0.5-4.3,0.5-6.5c0-2.2-0.1-4.3,0-6.5
			c0.2-2.6,0.2-5.1,0.1-7.6c-0.1-1.6,0-3.3,0-4.9c0-0.3,0.1-0.7-0.5-0.9c-4.2,3.3-8.7,6-13.7,8.2c-5,2.2-10.2,3.6-15.6,4.5
			c-0.3,0.8-0.6,1.4-0.9,2.1c-0.7,1.5-1.8,2.8-3.3,3.6c-2.7,1.5-7,0.6-9-1.8c-0.6-0.8-1-1.7-1.5-2.5c-0.2-0.4-0.3-0.8-0.5-1.4
			c-5.7-1-11.1-2.7-16.1-5.4C535.1,472.5,530.6,468.9,526.4,464.3z M573.3,444.5c0-0.2,0.1-0.4,0-0.6c-0.3-0.9-0.7-1.9-1.1-2.7
			c-0.8-1.8-2.2-3.1-4.1-3.8c-4.6-1.6-9-1.4-13.3,0.9c-0.7,0.4-1.4,1-2,1.6c-0.9,1-1.6,2.2-1.6,3.7
			C553.4,444,570.9,444.8,573.3,444.5z M549.1,443.6c0.1-0.1,0.2-0.2,0.3-0.3c0.1-0.3,0.2-0.6,0.3-0.9c0.8-3.1,2.8-5.1,5.7-6.4
			c2.8-1.2,5.8-1.5,8.8-1.3c1.9,0.1,3.6,0.6,5.3,1.4c1.4,0.6,2.6,1.6,3.4,2.9c0.6,0.9,1,1.8,1.5,2.8c0.4,1,0.8,2.1,1.2,3.1
			c0.6,0,1.1,0.1,1.6,0.1c0.5,0,1-0.1,1.5-0.1c0.1-0.3,0.1-0.5,0.2-0.7c0.1-2.5-0.7-4.6-2.2-6.6c-1.3-1.8-3-3.1-5-4
			c-3.6-1.8-7.3-2.3-11.3-1.9c-3.7,0.4-7.1,1.7-10.1,4.1c-1.8,1.4-3.1,3.2-3.9,5.3c-0.3,0.8-0.7,1.6-0.5,2.5
			C547,443.8,548.1,443.7,549.1,443.6z M558.4,476.5c-0.1,0.2-0.2,0.4-0.3,0.7c-0.3,1.4-0.1,2.8,0.4,4.1c0.8,2.2,2.2,3.9,4.9,3.7
			c0.1,0,0.3,0,0.4,0.1c1.7,0.3,3.1-0.3,4.2-1.6c1.3-1.6,1.9-3.5,2.2-5.6c0-0.2-0.1-0.5-0.2-0.7
			C568.8,476.8,560.1,476.4,558.4,476.5z"/>
		<path class="st10" d="M572,478.6c0-0.8,0-1.5,0-2.1c0-1-0.3-1.3-1.3-1.3c-2-0.1-4.1-0.2-6.1-0.3c-2-0.1-4.1-0.2-6.1-0.3
			c-1.3-0.1-1.8,0.3-2,1.6c-0.1,0.8-0.2,1.5-0.3,2.3c-0.9,0.2-1.6-0.1-2.4-0.3c-10-2.2-18.6-7-25.5-14.6c-0.6-0.6-1.2-1.2-1.9-1.9
			c0-1.3-0.1-2.7,0-4.2c0.1-2,0.3-4.1,0.4-6.1c0.1-2.5,1.5-4.2,3.7-5.1c1.7-0.7,3.5-1.2,5.3-1.1c5.5,0.1,11,0.2,16.5,0.4
			c6,0.2,12,0.4,18.1,0.7c6,0.3,12.1,0.6,18.1,0.9c2.7,0.2,5.4,0.5,8,0.8c0.8,0.1,1.7,0.4,2.4,0.9c1,0.6,1.7,1.6,2,2.8
			c0.3,1.5,0.6,3,0.7,4.5c0.1,2.4,0,4.8,0,7.3c0,1.2-0.5,2.1-1.5,2.8c-4.4,3.4-9,6.3-14.1,8.5c-4.2,1.8-8.5,3-13,3.8
			C572.7,478.7,572.4,478.6,572,478.6z"/>
		<path class="st10" d="M526.4,464.3c4.2,4.6,8.7,8.2,13.9,10.9c5.1,2.7,10.5,4.4,16.1,5.4c0.2,0.5,0.3,1,0.5,1.4
			c0.5,0.9,0.9,1.8,1.5,2.5c1.9,2.4,6.2,3.3,9,1.8c1.5-0.8,2.5-2.1,3.3-3.6c0.3-0.6,0.6-1.3,0.9-2.1c5.4-0.8,10.6-2.2,15.6-4.5
			c4.9-2.2,9.5-5,13.7-8.2c0.6,0.2,0.5,0.6,0.5,0.9c0,1.6-0.1,3.3,0,4.9c0.1,2.6,0.1,5.1-0.1,7.6c-0.2,2.1-0.1,4.3,0,6.5
			c0,2.2-0.3,4.3-0.5,6.5c-0.1,1.2,0,2.5-0.1,3.7c0,0.8,0,1.7-0.1,2.5c-0.5,2.4-1.6,3.8-4.6,4c-5.6,0.5-11.2,0.5-16.9,0.1
			c-4.5-0.3-9-0.9-13.5-1.3c-0.7-0.1-1.3,0-2-0.1c-1.5-0.1-3-0.2-4.5-0.2c-1,0-2.1-0.1-3.1-0.1c-0.5,0-1,0-1.6,0
			c-5.8-0.2-11.7-0.2-17.5,0c-1.9,0.1-3.8-0.1-5.7-0.1c-0.6,0-1.3-0.2-1.9-0.3c-1-0.2-1.6-0.7-2.2-1.5c-0.9-1.5-1.5-3-1.7-4.7
			c-0.3-2.8,0.1-5.6,0.3-8.4c0.1-0.7,0.1-1.4,0-2.2c0-0.5-0.1-1-0.1-1.6c0.2-3.5,0.4-7.1,0.5-10.6c0.1-1,0.1-2.1,0.1-3.1
			c0-1.6,0.1-3.3,0.1-4.9C526.2,465.4,526.3,465.1,526.4,464.3z"/>
		<path class="st10" d="M549.1,443.6c-1.1,0.1-2.2,0.2-3.3-0.1c-0.2-0.9,0.2-1.7,0.5-2.5c0.8-2.1,2.2-3.9,3.9-5.3
			c2.9-2.4,6.3-3.7,10.1-4.1c3.9-0.4,7.7,0.1,11.3,1.9c2,1,3.7,2.3,5,4c1.5,1.9,2.3,4.1,2.2,6.6c0,0.2-0.1,0.4-0.2,0.7
			c-0.5,0-1,0.1-1.5,0.1c-0.5,0-1-0.1-1.6-0.1c-0.4-1.1-0.7-2.1-1.2-3.1c-0.4-1-0.9-1.9-1.5-2.8c-0.8-1.3-2-2.2-3.4-2.9
			c-1.7-0.8-3.4-1.2-5.3-1.4c-3-0.2-6,0.1-8.8,1.3c-2.9,1.2-4.8,3.3-5.7,6.4c-0.1,0.3-0.2,0.6-0.3,0.9
			C549.4,443.4,549.2,443.5,549.1,443.6z"/>
		<path class="st10" d="M558.4,476.5c1.7-0.1,10.4,0.3,11.6,0.6c0.1,0.2,0.2,0.5,0.2,0.7c-0.3,2-0.9,4-2.2,5.6
			c-1.1,1.3-2.4,2-4.2,1.6c-0.1,0-0.3-0.1-0.4-0.1c-2.7,0.2-4.1-1.5-4.9-3.7c-0.5-1.3-0.7-2.7-0.4-4.1
			C558.2,477,558.3,476.7,558.4,476.5z"/>
	</g>
</g>
</svg>
