<?xml version="1.0" encoding="utf-8"?>
<!-- Generator: Adobe Illustrator 28.2.0, SVG Export Plug-In . SVG Version: 6.00 Build 0)  -->
<svg version="1.1" id="Layer_1" xmlns="http://www.w3.org/2000/svg" xmlns:xlink="http://www.w3.org/1999/xlink" x="0px" y="0px"
	 viewBox="0 0 24 24" style="enable-background:new 0 0 24 24;" xml:space="preserve">
<style type="text/css">
	.st0{fill:#FA6400;}
</style>
<path class="st0" d="M12,15.8l-4.3-4.3l1.1-1.1l2.5,2.5V4.5h1.5v8.4l2.5-2.5l1.1,1.1L12,15.8z M6.3,19.5c-0.5,0-0.9-0.2-1.3-0.5
	c-0.3-0.4-0.5-0.8-0.5-1.3V15H6v2.7c0,0.1,0,0.1,0.1,0.2C6.2,18,6.2,18,6.3,18h11.4c0.1,0,0.1,0,0.2-0.1c0.1-0.1,0.1-0.1,0.1-0.2V15
	h1.5v2.7c0,0.5-0.2,0.9-0.5,1.3c-0.4,0.4-0.8,0.5-1.3,0.5C17.7,19.5,6.3,19.5,6.3,19.5z"/>
</svg>
