<?xml version="1.0" encoding="utf-8"?>
<!-- Generator: Adobe Illustrator 28.2.0, SVG Export Plug-In . SVG Version: 6.00 Build 0)  -->
<svg version="1.1" id="Layer_1" xmlns="http://www.w3.org/2000/svg" xmlns:xlink="http://www.w3.org/1999/xlink" x="0px" y="0px"
	 viewBox="0 0 250 250" style="enable-background:new 0 0 250 250;" xml:space="preserve">
<style type="text/css">
	.st0{fill:#FFFFFF;}
</style>
<path class="st0" d="M227.3,81.8c-5.6-13.2-13.6-25.1-23.8-35.3s-22.1-18.2-35.3-23.8C154.5,16.9,140,14,125,14s-29.5,2.9-43.2,8.7
	c-13.2,5.6-25.1,13.6-35.3,23.8S28.3,68.6,22.7,81.8C16.9,95.5,14,110,14,125s2.9,29.5,8.7,43.2c5.6,13.2,13.6,25.1,23.8,35.3
	s22.1,18.2,35.3,23.8c13.7,5.8,28.2,8.7,43.2,8.7s29.5-2.9,43.2-8.7c13.2-5.6,25.1-13.6,35.3-23.8s18.2-22.1,23.8-35.3
	c5.8-13.7,8.7-28.2,8.7-43.2S233.1,95.5,227.3,81.8z M125,225.9c-23.5,0-45.2-8.1-62.4-21.7c0.2-0.5,0.3-1,0.4-1.5
	c0.6-6.3,2.1-12.4,4.6-18.2c1.6-3.7,3.5-7.3,5.7-10.6s4.8-6.4,7.6-9.2c2.8-2.8,5.9-5.4,9.2-7.6c3.3-2.3,6.9-4.2,10.6-5.7
	c7.7-3.2,15.8-4.9,24.3-4.9s16.6,1.6,24.3,4.9c3.7,1.6,7.3,3.5,10.6,5.7s6.4,4.8,9.2,7.6s5.4,5.9,7.6,9.2c2.3,3.3,4.2,6.9,5.7,10.6
	c2.5,5.8,4,11.9,4.6,18.2c0.1,0.5,0.2,1,0.4,1.5C170.2,217.8,148.5,225.9,125,225.9z M110.7,130.5c-4.4-1.8-8.3-4.5-11.7-7.9
	c-3.4-3.4-6-7.3-7.9-11.7c-1.9-4.5-2.9-9.3-2.9-14.3s1-9.8,2.9-14.3c1.8-4.4,4.5-8.3,7.9-11.7c3.4-3.4,7.3-6,11.7-7.9
	C115.2,61,120,60,125,60s9.8,1,14.3,2.9c4.4,1.8,8.3,4.5,11.7,7.9s6,7.3,7.9,11.7c1.9,4.5,2.9,9.3,2.9,14.3s-1,9.8-2.9,14.3
	c-1.8,4.4-4.5,8.3-7.9,11.7c-3.4,3.4-7.3,6-11.7,7.9c-4.5,1.9-9.3,2.9-14.3,2.9C120,133.3,115.2,132.4,110.7,130.5z M196.9,195.8
	c-4.9-27-24.6-48.9-50.4-56.8c15.4-7.8,25.9-23.8,25.9-42.2c0-26.2-21.2-47.4-47.4-47.4S77.6,70.5,77.6,96.7
	c0,18.4,10.5,34.4,25.9,42.2c-25.8,8-45.5,29.8-50.4,56.8c-17.9-18.2-29-43.2-29-70.8C24.1,69.3,69.3,24.1,125,24.1
	S225.9,69.3,225.9,125C225.9,152.5,214.9,177.5,196.9,195.8z"/>
</svg>
