					<svg version="1.1" id="Layer_1" xmlns="http://www.w3.org/2000/svg"
						xmlns:xlink="http://www.w3.org/1999/xlink" x="0px" y="0px" viewBox="0 0 400 400"
						style="enable-background:new 0 0 400 400;" xml:space="preserve">

						<g>
							<line class="path1" x1="8.03" y1="378.48" x2="390.44" y2="378.48" />
							<path class="path1" d="M221.32,360.27v-18c0-4.97,4.04-9,9-9h130.51c4.97,0,9,4.03,9,9v18" />
							<path class="path1" d="M359.32,310.76c0-4.97-4.02-9-9-9h-109.5c-4.97,0-9,4.03-9,9v13.5c0,4.97,4.03,9,9,9h109.5c4.97,0,9-4.03,9-9
				   V310.76z" />
							<g>
								<g>
									<path class="path1" d="M357.97,137.61c3.08,3.09,3.09,8.1,0,11.19l-73.67,73.66c-3.09,3.09-8.1,3.09-11.19,0l-17.72-17.72
						   c-3.09-3.09-3.09-8.1,0-11.19l73.67-73.67c3.08-3.09,8.09-3.09,11.18,0L357.97,137.61z" />
									<path class="path1" d="M261.92,41.56c3.09,3.09,3.09,8.1,0,11.19l-73.67,73.67c-3.09,3.09-8.1,3.09-11.19,0l-17.72-17.72
						   c-3.09-3.09-3.1-8.1,0-11.2l73.66-73.66c3.09-3.09,8.11-3.09,11.2,0L261.92,41.56z" />
								</g>
								<g>
									<line class="path1" x1="263.96" y1="187.85" x2="193.95" y2="117.84" />
									<line class="path1" x1="323.37" y1="128.45" x2="253.36" y2="58.44" />
								</g>

								<rect x="47.14" y="212.41"
									transform="matrix(0.7071 -0.7071 0.7071 0.7071 -116.3343 175.4708)" class="path2"
									width="213.01" height="31.5" />

								<rect x="50.32" y="291.53"
									transform="matrix(0.7071 -0.7071 0.7071 0.7071 -203.251 139.4677)" class="path2"
									width="32.82" height="47.1" />
								<line class="path2" x1="208.8" y1="194.22" x2="187.59" y2="173" />
								<line class="path2" x1="186.52" y1="216.5" x2="165.31" y2="195.28" />
								<line class="path2" x1="272.14" y1="139.1" x2="242.71" y2="109.67" />
							</g>
							<g>
								<line class="path2" x1="357.83" y1="239.94" x2="391.97" y2="239.94" />
								<g>
									<line class="path2" x1="352.66" y1="214.47" x2="381.48" y2="196.15" />
									<line class="path2" x1="352.66" y1="265.41" x2="381.48" y2="283.73" />
								</g>
							</g>
							<g>
								<line class="path2" x1="238.52" y1="239.94" x2="204.38" y2="239.94" />
								<g>
									<line class="path2" x1="243.69" y1="265.41" x2="214.87" y2="283.73" />
								</g>
							</g>
						</g>
					</svg>
